<svg width="175" height="46" viewBox="0 0 175 46" fill="none" xmlns="http://www.w3.org/2000/svg">
<path d="M57.4658 3.92344C57.1353 4.25383 56.9701 4.70813 56.9701 5.20372C56.9701 5.74061 57.1353 6.15361 57.4658 6.484C57.7963 6.8144 58.2508 7.02089 58.8291 7.02089V3.30395C58.2508 3.42785 57.7963 3.59304 57.4658 3.92344ZM61.5145 10.6139H58.8291V9.33366C57.5071 9.29236 56.3917 8.87936 55.5654 8.09468C54.6979 7.30999 54.2848 6.3188 54.2848 5.20372C54.2848 4.08864 54.6979 3.13875 55.5654 2.31277C56.433 1.52808 57.5071 1.11509 58.8291 1.07379V0H61.5145V1.07379C62.8365 1.11509 63.9519 1.52808 64.7781 2.31277C65.6457 3.09745 66.0588 4.04734 66.0588 5.20372C66.0588 6.3188 65.6457 7.26869 64.7781 8.05338C63.9106 8.83806 62.8365 9.25106 61.5145 9.29236V10.6139ZM62.8778 6.52531C63.2083 6.19491 63.3735 5.78192 63.3735 5.24502C63.3735 4.70813 63.2083 4.29514 62.8778 3.96474C62.5473 3.63435 62.0928 3.42785 61.5145 3.38655V7.10349C62.0928 7.0209 62.5473 6.8557 62.8778 6.52531ZM71.1403 8.05338H76.263V10.3248H68.455V0.371704H76.1391V2.64317H71.1816V4.21254H75.0237V6.36011H71.1816V8.05338H71.1403ZM77.5437 7.92948H78.1221L78.2874 7.76429C78.37 7.68169 78.4526 7.51649 78.6178 7.26869C78.7831 7.02089 78.907 6.7318 79.031 6.4014C79.1549 6.07101 79.2788 5.65801 79.3615 5.16242C79.4854 4.62553 79.5267 4.08864 79.5267 3.51045V0.371704H86.9217V7.88818H88.0784V12.3072H85.3518V10.3248H80.229V12.3072H77.5437V7.92948ZM82.212 3.51045C82.212 4.08864 82.1707 4.66683 82.0468 5.16242C81.9642 5.65801 81.8402 6.11231 81.675 6.4014C81.551 6.7318 81.3858 7.02089 81.2618 7.22739C81.1379 7.47518 81.014 7.64039 80.89 7.72298L80.7248 7.88818H84.1537V2.76706H82.1707V3.51045H82.212ZM92.8707 8.05338H97.9934V10.3248H90.1854V0.371704H97.8695V2.64317H92.912V4.21254H96.7541V6.36011H92.8707V8.05338ZM100.431 0.371704H104.893C105.967 0.371704 106.876 0.702097 107.578 1.36289C108.28 2.02368 108.611 2.84966 108.611 3.84085C108.611 4.83203 108.28 5.65802 107.578 6.31881C106.876 6.9796 106.008 7.30999 104.934 7.30999H103.158V10.2836H100.472V0.371704H100.431ZM104.769 2.80836H103.158V4.95592H104.769C105.099 4.95592 105.347 4.83203 105.554 4.62553C105.76 4.41904 105.884 4.17125 105.884 3.88215C105.884 3.59305 105.76 3.34525 105.554 3.13875C105.347 2.93226 105.058 2.80836 104.769 2.80836ZM115.179 6.07101L114.271 3.13875L113.362 6.07101H115.179ZM115.923 8.21858H112.659L111.957 10.3661H109.024L112.783 0.412994H115.758L119.517 10.3661H116.584L115.923 8.21858ZM130.217 0.371704V10.3248H127.491V2.80836H125.218V3.51045C125.218 4.62553 125.177 5.57541 125.053 6.4014C124.929 7.22739 124.764 7.92949 124.599 8.42508C124.392 8.96197 124.144 9.37495 123.855 9.70535C123.525 10.0357 123.235 10.2422 122.864 10.4074C122.533 10.5313 122.12 10.6139 121.707 10.6139C121.459 10.6139 121.252 10.5726 121.005 10.5313C120.757 10.49 120.591 10.4487 120.467 10.4074L120.302 10.3248V7.84688C120.55 7.92948 120.757 7.97078 120.922 7.97078C121.17 7.97078 121.376 7.92949 121.583 7.80559C121.748 7.68169 121.913 7.47519 122.079 7.1861C122.244 6.8557 122.368 6.4014 122.45 5.82321C122.533 5.20372 122.574 4.46033 122.574 3.55175V0.412994H130.217V0.371704ZM137.653 10.3248H133.192V0.371704H135.877V3.34525H137.653C138.728 3.34525 139.636 3.67564 140.339 4.33643C141.041 4.99722 141.372 5.82321 141.372 6.81439C141.372 7.80558 141.041 8.63157 140.339 9.29236C139.636 9.99444 138.769 10.3248 137.653 10.3248ZM135.877 7.92948H137.488C137.819 7.92948 138.067 7.80559 138.273 7.59909C138.48 7.3926 138.604 7.14479 138.604 6.8557C138.604 6.5666 138.48 6.31881 138.273 6.11231C138.067 5.90582 137.777 5.78191 137.488 5.78191H135.877V7.92948ZM152.815 0.371704V10.3248H150.13V6.484H146.494V10.3248H143.809V0.371704H146.494V4.08865H150.13V0.371704H152.815ZM160.83 6.07101L159.921 3.13875L159.012 6.07101H160.83ZM161.573 8.21858H158.31L157.607 10.3661H154.674L158.434 0.412994H161.408L165.168 10.3661H162.276L161.573 8.21858ZM175 0.371704V10.3248H172.315V7.1861H170.91L169.216 10.3248H166.366L168.431 6.6905C168.39 6.6905 168.307 6.6492 168.225 6.6079C168.142 6.5666 168.018 6.4427 167.812 6.27751C167.605 6.11231 167.44 5.90582 167.275 5.74062C167.109 5.53412 166.985 5.24503 166.861 4.91463C166.738 4.54294 166.696 4.17124 166.696 3.79955C166.696 2.84966 167.027 2.02368 167.729 1.36289C168.431 0.702097 169.299 0.371704 170.332 0.371704H175ZM169.671 3.09745C169.464 3.26265 169.382 3.51045 169.382 3.79955C169.382 4.08864 169.464 4.33644 169.671 4.50164C169.877 4.66684 170.125 4.79073 170.414 4.79073H172.273V2.80836H170.414C170.125 2.80836 169.877 2.89095 169.671 3.09745ZM58.7052 23.8297L57.6311 25.0274V27.588H54.9458V17.6348H57.6311V21.4757L60.8948 17.6348H64.0345L60.4816 21.7648L64.3237 27.588H61.184L58.7052 23.8297ZM71.0577 23.3341L70.1488 20.4019L69.2399 23.3341H71.0577ZM71.76 25.4817H68.4963L67.794 27.6293H64.8608L68.6202 17.6761H71.5947L75.3542 27.6293H72.421L71.76 25.4817ZM76.0978 25.1926H76.6762L76.8414 25.0274C76.924 24.9448 77.0067 24.7796 77.1719 24.5318C77.3372 24.284 77.4611 23.9949 77.585 23.6645C77.709 23.3341 77.8329 22.9212 77.9155 22.4256C78.0395 21.8887 78.0808 21.3518 78.0808 20.7736V17.6348H85.4757V25.1513H86.6325V29.6116H83.9058V27.6293H78.8244V29.6116H76.1391V25.1926H76.0978ZM80.8074 20.7736C80.8074 21.3518 80.7661 21.93 80.6422 22.4256C80.5595 22.9212 80.4356 23.3754 80.2703 23.6645C80.1464 23.9949 79.9812 24.284 79.8572 24.4905C79.7333 24.7383 79.6094 24.9035 79.4854 24.9861L79.3202 25.1513H82.7491V20.0302H80.7661V20.7736H80.8074ZM93.8209 23.3341L92.912 20.4019L92.0031 23.3341H93.8209ZM94.5232 25.4817H91.2595L90.5572 27.6293H87.624L91.3834 17.6761H94.3579L98.1174 27.6293H95.1842L94.5232 25.4817ZM102.373 20.6084C101.835 21.1453 101.546 21.8061 101.546 22.6321C101.546 23.458 101.835 24.1188 102.373 24.6557C102.91 25.1926 103.612 25.4817 104.397 25.4817C104.893 25.4817 105.388 25.3578 105.843 25.1513C106.297 24.9448 106.628 24.7383 106.834 24.4905L107.124 24.1601L108.693 25.8534C108.652 25.8947 108.611 25.9773 108.528 26.0599C108.446 26.1425 108.28 26.3077 108.032 26.5555C107.785 26.762 107.495 26.9685 107.165 27.175C106.876 27.3402 106.463 27.5054 105.967 27.6293C105.471 27.7532 104.975 27.8358 104.438 27.8358C102.91 27.8358 101.588 27.3402 100.514 26.3077C99.4394 25.2752 98.9023 24.0362 98.9023 22.5908C98.9023 21.1453 99.4394 19.9063 100.514 18.8738C101.588 17.8413 102.91 17.3044 104.438 17.3044C104.975 17.3044 105.471 17.387 105.967 17.5109C106.463 17.6348 106.834 17.8 107.165 18.0065C107.495 18.213 107.743 18.3782 107.991 18.5847C108.239 18.7912 108.404 18.9564 108.487 19.0803L108.652 19.2868L107 20.9801C106.958 20.9388 106.917 20.8975 106.876 20.8562C106.834 20.8149 106.71 20.691 106.545 20.5671C106.38 20.4019 106.215 20.278 106.008 20.1954C105.843 20.0715 105.595 19.9889 105.306 19.9063C105.017 19.8237 104.727 19.7824 104.397 19.7824C103.612 19.7824 102.91 20.0715 102.373 20.6084ZM109.933 17.6348H118.195V20.0715H115.427V27.588H112.742V20.0715H109.974V17.6348H109.933ZM120.344 17.6348H124.805C125.879 17.6348 126.788 17.9652 127.491 18.626C128.193 19.2868 128.523 20.1128 128.523 21.104C128.523 22.0952 128.193 22.9211 127.491 23.5819C126.788 24.2427 125.921 24.5731 124.847 24.5731H123.029V27.5467H120.344V17.6348ZM124.681 20.0715H123.029V22.2191H124.64C124.971 22.2191 125.218 22.0952 125.425 21.8887C125.632 21.6822 125.755 21.4344 125.755 21.1453C125.755 20.8562 125.632 20.6084 125.425 20.4019C125.26 20.1954 124.971 20.0715 124.681 20.0715ZM133.935 20.6084C133.398 21.1453 133.15 21.8061 133.15 22.6321C133.15 23.458 133.398 24.1188 133.935 24.6557C134.472 25.1926 135.133 25.4817 135.918 25.4817C136.703 25.4817 137.364 25.1926 137.901 24.6557C138.438 24.1188 138.686 23.4167 138.686 22.6321C138.686 21.8474 138.438 21.1453 137.901 20.6084C137.364 20.0715 136.703 19.7824 135.918 19.7824C135.133 19.7824 134.472 20.0715 133.935 20.6084ZM139.843 18.9151C140.917 19.9476 141.454 21.1866 141.454 22.6321C141.454 24.0775 140.917 25.3165 139.843 26.349C138.769 27.3815 137.447 27.8771 135.918 27.8771C134.39 27.8771 133.068 27.3815 131.994 26.349C130.92 25.3165 130.382 24.0775 130.382 22.6321C130.382 21.1866 130.92 19.9476 131.994 18.9151C133.068 17.8826 134.39 17.3457 135.918 17.3457C137.447 17.3457 138.769 17.8826 139.843 18.9151ZM148.643 27.588H143.892V17.6348H148.353C149.386 17.6348 150.212 17.8826 150.832 18.4195C151.452 18.9564 151.782 19.5759 151.782 20.278C151.782 20.5671 151.741 20.8149 151.658 21.0627C151.576 21.3105 151.452 21.517 151.328 21.6409C151.204 21.8061 151.08 21.93 150.956 22.0126C150.832 22.1365 150.75 22.1778 150.626 22.2604L150.502 22.343C150.543 22.343 150.626 22.3843 150.708 22.4256C150.791 22.4669 150.915 22.5495 151.121 22.6734C151.328 22.7973 151.493 22.9212 151.658 23.0864C151.824 23.2515 151.948 23.458 152.072 23.7471C152.195 24.0362 152.278 24.3253 152.278 24.6557C152.278 25.4404 151.948 26.1012 151.245 26.6794C150.543 27.2989 149.675 27.588 148.643 27.588ZM146.577 25.4817H148.436C148.767 25.4817 149.014 25.3991 149.221 25.1926C149.428 24.9861 149.51 24.7796 149.51 24.4905C149.51 24.2014 149.428 23.9536 149.221 23.7884C149.014 23.5819 148.767 23.4993 148.436 23.4993H146.577V25.4817ZM148.064 19.7824H146.577V21.4757H148.064C148.353 21.4757 148.56 21.3931 148.725 21.2279C148.89 21.0627 148.973 20.8562 148.973 20.6084C148.973 20.3606 148.89 20.1541 148.725 19.9889C148.56 19.865 148.353 19.7824 148.064 19.7824ZM159.425 23.3341L158.516 20.4019L157.607 23.3341H159.425ZM160.128 25.4817H156.864L156.162 27.6293H153.228L156.988 17.6761H159.962L163.722 27.6293H160.789L160.128 25.4817ZM173.595 17.6348V27.588H170.91V24.4492H169.505L167.812 27.588H164.961L167.027 23.9536C166.985 23.9536 166.903 23.9123 166.82 23.871C166.738 23.8297 166.614 23.7058 166.407 23.5406C166.2 23.3754 166.035 23.1689 165.87 23.0037C165.705 22.7973 165.581 22.5082 165.457 22.1778C165.333 21.8061 165.292 21.4344 165.292 21.0627C165.292 20.1128 165.622 19.2868 166.324 18.626C167.027 17.9652 167.894 17.6348 168.927 17.6348H173.595ZM168.266 20.3606C168.06 20.5258 167.977 20.7736 167.977 21.0627C167.977 21.3518 168.06 21.5996 168.266 21.7648C168.473 21.9713 168.721 22.0539 169.01 22.0539H170.869V20.0715H169.01C168.721 20.0715 168.473 20.1541 168.266 20.3606ZM63.828 34.898V44.8511H61.1426V37.3346H57.6724V44.8511H54.9871V34.898H63.828ZM71.8426 40.5973L70.9337 37.665L70.0248 40.5973H71.8426ZM72.5449 42.7448H69.2812L68.5789 44.8924H65.6457L69.4051 34.9393H72.3797L76.1391 44.8924H73.2059L72.5449 42.7448ZM86.839 34.898V44.8511H84.1124V37.3346H81.8402V38.0367C81.8402 39.1518 81.7989 40.1017 81.675 40.9277C81.551 41.7537 81.3858 42.4557 81.2205 42.9513C81.014 43.4882 80.7661 43.9012 80.4769 44.2316C80.1464 44.562 79.8572 44.7685 79.4854 44.9337C79.1549 45.0576 78.7418 45.1402 78.3287 45.1402C78.0808 45.1402 77.8742 45.0989 77.6263 45.0576C77.3785 45.0163 77.2132 44.975 77.0893 44.9337L76.924 44.8511V42.3731C77.1719 42.4557 77.3785 42.4971 77.5437 42.4971C77.7916 42.4971 77.9982 42.4557 78.2047 42.3318C78.37 42.2079 78.5352 42.0014 78.7005 41.7124C78.8657 41.382 78.9897 40.9277 79.0723 40.3495C79.1549 39.73 79.1962 38.9866 79.1962 38.078V34.9393H86.839V34.898ZM94.895 40.5973L93.9861 37.665L93.0772 40.5973H94.895ZM95.5973 42.7448H92.3336L91.6313 44.8924H88.6981L92.4576 34.9393H95.4321L99.1915 44.8924H96.2583L95.5973 42.7448ZM99.3568 34.898H107.619V37.3346H104.851V44.8511H102.166V37.3346H99.3981V34.898H99.3568ZM113.94 40.5973L113.031 37.665L112.122 40.5973H113.94ZM114.642 42.7448H111.379L110.676 44.8924H107.743L111.503 34.9393H114.477L118.237 44.8924H115.303L114.642 42.7448Z" fill="#344059"/>
<path d="M9.74976 9.87062L0 45.0577V0.123962L9.74976 9.87062Z" fill="#2E87C9"/>
<path d="M44.9894 45.0576H0L22.474 22.5907L44.9894 45.0576Z" fill="#2E87C9"/>
<path d="M44.9894 0.123962L22.4741 22.5908L9.74982 9.87061L12.4764 0.123962H44.9894Z" fill="#2B5CA1"/>
<path d="M22.474 22.5907L0 45.0576L9.74977 9.87054L22.474 22.5907Z" fill="#344059"/>
</svg>
