<svg width="20" height="20" viewBox="0 0 20 20" fill="none" xmlns="http://www.w3.org/2000/svg">
<path d="M10.0293 0.332031C4.6733 0.332031 0.332397 4.67162 0.332397 10.029C0.332397 15.3837 4.6733 19.7252 10.0293 19.7252C15.3834 19.7252 19.7249 15.3837 19.7249 10.029C19.7249 4.67162 15.384 0.332031 10.0293 0.332031ZM10.0293 18.1434C5.54463 18.1434 1.91288 14.511 1.91288 10.0283C1.91288 5.54492 5.54463 1.9112 10.0293 1.9112C14.5101 1.9112 18.1445 5.54558 18.1445 10.0283C18.1451 14.511 14.5101 18.1434 10.0293 18.1434Z" fill="#006FB8"/>
<path d="M11.3833 7.64868H8.65766V7.65328H7.64319V9.2377H8.65766V14.8964H7.58081V16.4106H8.65766V16.4211H11.3833V16.4106H12.275V14.8964H11.3833V7.64868Z" fill="#006FB8"/>
<path d="M10.0017 6.57251C10.9177 6.57251 11.4726 5.96317 11.4726 5.20872C11.4548 4.43916 10.9171 3.84821 10.0385 3.84821C9.16127 3.84821 8.58673 4.43851 8.58673 5.20872C8.58607 5.96317 9.14223 6.57251 10.0017 6.57251Z" fill="#006FB8"/>
</svg>
